# xmcd CD database file
#
# Track frame offsets:
#	183
#	20170
#	37060
#	48665
#	65480
#	97605
#	114998
#	130563
#	150045
#	169743
#	190415
#
# Disc length: 2795 seconds
#
# Revision: 3
# Processed by: cddbd v1.5.2PL0 Copyright (c) Steve Scherf et al.
# Submitted via: CDex 1.70beta2
#
DISCID=850ae90b
DTITLE=Darrell Mansfield - Give Him Your Blues
DYEAR=1992
DGENRE=Christian Blues
TTITLE0=Never Been to the Seminary
TTITLE1=Beautiful City
TTITLE2=Trimmed and Burnin'
TTITLE3=You Know It Ain't Right
TTITLE4=Ain't No Need
TTITLE5=God's Radar
TTITLE6=It Takes God to Built a Home
TTITLE7=I Know Jesus Can
TTITLE8=Swing Low
TTITLE9=The Mission
TTITLE10=Never Heard a Man
EXTD=YEAR: 1992
EXTT0=
EXTT1=
EXTT2=
EXTT3=
EXTT4=
EXTT5=
EXTT6=
EXTT7=
EXTT8=
EXTT9=
EXTT10=
PLAYORDER=
